<?xml version="1.0" standalone="no"?>
<!DOCTYPE svg PUBLIC "-//W3C//DTD SVG 20010904//EN"
 "http://www.w3.org/TR/2001/REC-SVG-20010904/DTD/svg10.dtd">
<svg version="1.0" xmlns="http://www.w3.org/2000/svg"
 width="249.000000pt" height="249.000000pt" viewBox="0 0 249.000000 249.000000"
 preserveAspectRatio="xMidYMid meet">
<metadata>
Created by potrace 1.15, written by Peter Selinger 2001-2017
</metadata>
<g transform="translate(0.000000,249.000000) scale(0.100000,-0.100000)"
fill="#000000" stroke="none">
<path d="M30 2171 l0 -180 312 -288 c171 -158 437 -404 590 -546 153 -141 279
-257 280 -257 2 0 4 32 5 72 4 127 44 227 127 316 50 55 118 102 145 102 12 0
21 4 21 9 0 20 78 36 170 35 153 -2 291 -62 393 -173 143 -154 163 -410 46
-593 -41 -63 -127 -140 -192 -172 -153 -75 -349 -51 -520 64 -99 67 -183 141
-797 710 -295 272 -546 504 -558 514 l-22 19 0 -816 0 -817 135 0 135 0 2 508
3 509 310 -289 c565 -527 722 -643 944 -699 71 -18 104 -21 215 -17 210 8 326
59 476 208 98 98 157 198 191 327 28 105 30 297 4 398 -64 252 -249 456 -495
546 -146 53 -284 67 -412 43 l-28 -6 0 326 0 326 -135 0 -135 0 0 -382 0 -383
-88 -91 -88 -91 -250 231 c-501 463 -739 681 -761 699 l-23 18 0 -180z"/>
</g>
</svg>
